<?xml version="1.0" encoding="utf-8"?>
<!-- Generator: Adobe Illustrator 19.0.0, SVG Export Plug-In . SVG Version: 6.00 Build 0)  -->
<svg version="1.1" xmlns="http://www.w3.org/2000/svg" xmlns:xlink="http://www.w3.org/1999/xlink" x="0px" y="0px"
	 viewBox="0 0 960 560" style="enable-background:new 0 0 960 560;" xml:space="preserve">
<style type="text/css">
	.st0{fill:#FFFFFF;stroke:#000000;stroke-miterlimit:10;}
	.st1{fill:none;stroke:#000000;stroke-miterlimit:10;}
	.st2{fill:none;stroke:#0000FF;}
	.st3{font-family:'MyriadPro-Regular';}
	.st4{font-size:26.7515px;}
	.st5{font-size:19px;}
	.st6{opacity:0.75;}
	.st7{fill:#FFFFFF;}
	.st8{clip-path:url(#XMLID_57_);fill:none;stroke:#0000CC;stroke-miterlimit:10;}
	.st9{fill:none;stroke:#000000;stroke-width:1.25;stroke-linecap:square;stroke-linejoin:round;}
	.st10{opacity:0.5;fill:none;stroke:#888888;enable-background:new    ;}
	.st11{fill:none;stroke:#0000FF;stroke-dasharray:24,24;}
	.st12{fill:#FFFFFF;stroke:#0000FF;stroke-width:0.5;}
	.st13{font-size:66.5px;}
</style>
<g id="Ebene_1">
	<circle id="XMLID_1_" class="st0" cx="129.6" cy="104.5" r="21.8"/>
	<circle id="XMLID_2_" class="st0" cx="500.6" cy="280.5" r="45.6"/>
	<circle id="XMLID_4_" class="st0" cx="292.6" cy="212.5" r="21.8"/>
	<circle id="XMLID_6_" class="st0" cx="129.6" cy="192.5" r="21.8"/>
	<circle id="XMLID_8_" class="st0" cx="129.6" cy="280.5" r="21.8"/>
	<circle id="XMLID_10_" class="st0" cx="129.6" cy="368.5" r="21.8"/>
	<circle id="XMLID_12_" class="st0" cx="129.6" cy="456.5" r="21.8"/>
	<circle id="XMLID_5_" class="st0" cx="292.6" cy="144.5" r="21.8"/>
	<circle id="XMLID_15_" class="st0" cx="292.6" cy="417.5" r="21.8"/>
	<circle id="XMLID_7_" class="st0" cx="292.6" cy="280.5" r="21.8"/>
	<circle id="XMLID_14_" class="st0" cx="292.6" cy="348.5" r="21.8"/>
	<line id="XMLID_9_" class="st1" x1="151.4" y1="104.5" x2="270.8" y2="144.5"/>
	<line id="XMLID_11_" class="st1" x1="151.4" y1="192.5" x2="270.8" y2="212.5"/>
	<line id="XMLID_16_" class="st1" x1="151" y1="280.5" x2="271" y2="280.5"/>
	<line id="XMLID_17_" class="st1" x1="151.4" y1="368.5" x2="270.8" y2="348.5"/>
	<line id="XMLID_18_" class="st1" x1="151.4" y1="456.5" x2="270.8" y2="417.5"/>
	<line id="XMLID_19_" class="st1" x1="314.4" y1="144.5" x2="455" y2="280.5"/>
	<line id="XMLID_20_" class="st1" x1="314.4" y1="212.5" x2="455" y2="280.5"/>
	<line id="XMLID_21_" class="st1" x1="314.4" y1="280.5" x2="455" y2="280.5"/>
	<line id="XMLID_22_" class="st1" x1="314.4" y1="348.5" x2="455" y2="280.5"/>
	<line id="XMLID_23_" class="st1" x1="314.4" y1="417.5" x2="455" y2="280.5"/>
	<circle id="XMLID_24_" class="st0" cx="634.6" cy="280.5" r="45.6"/>
	<circle id="XMLID_26_" class="st0" cx="768.6" cy="280.5" r="45.6"/>
	<line id="XMLID_3_" class="st1" x1="546" y1="280.5" x2="589" y2="280.5"/>
	<line id="XMLID_13_" class="st1" x1="680" y1="280.5" x2="723" y2="280.5"/>
	<line id="XMLID_25_" class="st1" x1="814.1" y1="280.5" x2="867.3" y2="280"/>
	<line id="XMLID_27_" class="st1" x1="701.5" y1="280" x2="701.5" y2="111"/>
	<line id="XMLID_28_" class="st1" x1="701" y1="111.5" x2="620" y2="111.5"/>
	<rect id="XMLID_29_" x="489.4" y="82.7" class="st1" width="130.6" height="54.8"/>
	<line id="XMLID_30_" class="st1" x1="489" y1="111.5" x2="392" y2="111.5"/>
	<line id="XMLID_31_" class="st1" x1="392" y1="111.5" x2="341.3" y2="122.7"/>
	<polygon id="XMLID_32_" class="st1" points="327.4,125.1 340.2,116.5 342.4,128.8 	"/>
	<polygon id="XMLID_33_" class="st1" points="881.4,280 867.3,286.2 867.3,273.8 	"/>
	<circle id="XMLID_51_" cx="291.8" cy="374.9" r="2"/>
	<circle id="XMLID_49_" cx="291.8" cy="382.7" r="2"/>
	<circle id="XMLID_48_" cx="291.8" cy="390.4" r="2"/>
	<circle id="XMLID_53_" cx="129.8" cy="412.9" r="2"/>
	<circle id="XMLID_52_" cx="129.8" cy="420.7" r="2"/>
	<circle id="XMLID_50_" cx="129.8" cy="428.4" r="2"/>
	<circle id="XMLID_54_" cx="129.8" cy="404.9" r="2"/>
	<circle id="XMLID_55_" cx="129.8" cy="396.9" r="2"/>
</g>
<g id="Ebene_2">
	<line id="XMLID_73_" class="st2" x1="769.5" y1="263" x2="769.5" y2="302"/>
	<text id="XMLID_34_" transform="matrix(1 0 0 1 516.9999 122.658)" class="st3 st4">Fehler</text>
	<text transform="matrix(1 0 0 1 125.8328 110.0439)" class="st3 st5">x</text>
	<text transform="matrix(0.583 0 0 0.583 134.6297 116.371)" class="st3 st5">0</text>
	<text transform="matrix(1 0 0 1 125.8326 197.5885)" class="st3 st5">x</text>
	<text transform="matrix(0.583 0 0 0.583 134.6295 203.9156)" class="st3 st5">1</text>
	<text transform="matrix(1 0 0 1 125.8324 286.3385)" class="st3 st5">x</text>
	<text transform="matrix(0.583 0 0 0.583 134.6292 292.6656)" class="st3 st5">2</text>
	<text transform="matrix(1 0 0 1 125.8321 373.8384)" class="st3 st5">x</text>
	<text transform="matrix(0.583 0 0 0.583 134.629 380.1656)" class="st3 st5">3</text>
	<text transform="matrix(1 0 0 1 125.8326 461.8381)" class="st3 st5">x</text>
	<text transform="matrix(0.583 0 0 0.583 134.6295 468.1652)" class="st3 st5">m</text>
	<text transform="matrix(1 0 0 1 284.8333 149.6667)" class="st3 st5">w</text>
	<text transform="matrix(0.583 0 0 0.583 298.8172 155.9938)" class="st3 st5">0</text>
	<text transform="matrix(1 0 0 1 285.6667 219)" class="st3 st5">w</text>
	<text transform="matrix(0.583 0 0 0.583 299.6506 225.3271)" class="st3 st5">1</text>
	<text transform="matrix(1 0 0 1 285.6667 286.3385)" class="st3 st5">w</text>
	<text transform="matrix(0.583 0 0 0.583 299.6506 292.6656)" class="st3 st5">2</text>
	<text transform="matrix(1 0 0 1 285.6668 354.5)" class="st3 st5">w</text>
	<text transform="matrix(0.583 0 0 0.583 299.6507 360.8271)" class="st3 st5">3</text>
	<text transform="matrix(1 0 0 1 284.8333 424.3333)" class="st3 st5">w</text>
	<text transform="matrix(0.583 0 0 0.583 298.8172 430.6605)" class="st3 st5">m</text>
	<g id="XMLID_45_">
		<g id="math_1_" class="st6">
			<path id="sigma_1_" d="M506.3,277.9l-15.5,19.9l25.8,0v-4.3h4.3v12.9h-43.1l21.5-25.8l-21.5-25.8h43.1v12.9h-4.3V259h-25.8
				L506.3,277.9"/>
		</g>
	</g>
	<g id="XMLID_46_">
		<title>mplwp_logistic function.svg</title>
		<desc>http://commons.wikimedia.org/wiki/File:mplwp_logistic function.svg
Plot created with mplwp, the Matplotlib extension for Wikipedia plots.</desc>
		<g id="figure_1_1_">
			<g id="patch_1_1_">
			</g>
			<g id="axes_1_1_">
				<g id="patch_2_1_">
					<path id="XMLID_317_" class="st7" d="M597.5,306.9h74.1v-51.1h-74.1V306.9z"/>
				</g>
				<g id="line2d_1_1_">
					<g id="XMLID_314_">
						<defs>
							<rect id="XMLID_316_" x="597.5" y="255.8" width="74.1" height="51.1"/>
						</defs>
						<clipPath id="XMLID_57_">
							<use xlink:href="#XMLID_316_"  style="overflow:visible;"/>
						</clipPath>
						<path id="XMLID_315_" class="st8" d="M597.5,299.5l3.4-0.1l2.6-0.1l2.2-0.1l1.8-0.1l1.6-0.1l1.4-0.1l1.3-0.2l1.2-0.2l1.1-0.2
							l1-0.2l0.9-0.2l0.9-0.3l0.9-0.3l0.8-0.3l0.8-0.3l0.8-0.3l0.7-0.4l0.7-0.4l0.7-0.4l0.7-0.5l0.7-0.5l0.7-0.5l0.7-0.6l0.7-0.6
							l0.7-0.7l0.7-0.7l0.7-0.8l0.7-0.9l0.8-0.9l0.8-1l0.9-1.2l1-1.4l1.2-1.7l2.3-3.4l1.4-2.1l1.1-1.5l0.9-1.2l0.8-1.1l0.8-1
							l0.8-0.9l0.7-0.8l0.7-0.7l0.7-0.7l0.7-0.6l0.7-0.6l0.7-0.5l0.7-0.5l0.7-0.5l0.7-0.4l0.7-0.4l0.7-0.4l0.8-0.3l0.8-0.3l0.8-0.3
							l0.8-0.3l0.9-0.3l0.9-0.2l1-0.2l1.1-0.2l1.2-0.2l1.3-0.2l1.4-0.1l1.5-0.1l1.7-0.1l2-0.1l2.4-0.1l2.9-0.1l1.1,0l0,0"/>
					</g>
				</g>
				<g id="patch_3_1_">
					<path id="XMLID_68_" class="st9" d="M671.6,255.8"/>
				</g>
				<g id="patch_4_1_">
					<path id="XMLID_67_" class="st9" d="M671.6,306.9"/>
				</g>
				<g id="patch_5_1_">
				</g>
				<g id="patch_6_1_">
				</g>
			</g>
		</g>
	</g>
	<g id="XMLID_65_">
		<desc>Produced by GNUPLOT 4.0 patchlevel 0</desc>
		<g id="XMLID_72_">
			<path id="XMLID_212_" class="st10" d="M731,302.6 M769,254.2"/>
			<path id="XMLID_207_" class="st2" d="M731,302.6h38 M769,262.3h38"/>
			<path id="XMLID_206_" class="st11" d="M769,262.3"/>
		</g>
		<g id="XMLID_66_">
			<circle id="XMLID_70_" class="st12" cx="769" cy="262.3" r="1"/>
			<circle id="XMLID_69_" class="st12" cx="769.2" cy="302.7" r="1"/>
		</g>
	</g>
	<text id="XMLID_47_" transform="matrix(0.583 0 0 0.583 894.478 295.9203)" class="st3 st13">y</text>
</g>
<g id="Ebene_3">
</g>
</svg>
