<?xml version="1.0" encoding="utf-8"?>
<!-- Generator: Adobe Illustrator 19.0.0, SVG Export Plug-In . SVG Version: 6.00 Build 0)  -->
<svg version="1.1" id="Ebene_1" xmlns="http://www.w3.org/2000/svg" xmlns:xlink="http://www.w3.org/1999/xlink" x="0px" y="0px"
	 viewBox="0 0 960 560" style="enable-background:new 0 0 960 560;" xml:space="preserve">
<style type="text/css">
	.st0{fill:#FFFFFF;stroke:#000000;stroke-miterlimit:10;}
	.st1{fill:none;stroke:#000000;stroke-miterlimit:10;}
	.st2{stroke:#000000;stroke-miterlimit:10;}
</style>
<rect id="XMLID_1_" x="53.2" y="303.7" class="st0" width="258.2" height="147.7"/>
<g id="XMLID_2_">
	<path id="XMLID_58_" d="M123.5,362.7v36.8h-4.8v-36.8H123.5z"/>
	<path id="XMLID_60_" d="M132.2,380.3c0-2.7-0.1-5-0.2-7.2h4.3l0.3,4.4h0.1c1.3-2.5,4.4-5,8.7-5c3.7,0,9.3,2.2,9.3,11.3v15.8h-4.8
		v-15.2c0-4.3-1.6-7.8-6.1-7.8c-3.2,0-5.6,2.2-6.4,4.9c-0.2,0.6-0.3,1.4-0.3,2.2v15.9h-4.8V380.3z"/>
	<path id="XMLID_62_" d="M162.5,381.7c0-3.4-0.1-6.1-0.2-8.6h4.3l0.2,4.5h0.1c2-3.2,5.1-5.1,9.4-5.1c6.4,0,11.2,5.4,11.2,13.4
		c0,9.5-5.8,14.2-12,14.2c-3.5,0-6.6-1.5-8.1-4.2h-0.1v14.4h-4.8V381.7z M167.2,388.8c0,0.7,0.1,1.4,0.2,2c0.9,3.3,3.8,5.6,7.2,5.6
		c5.1,0,8-4.2,8-10.2c0-5.3-2.8-9.8-7.9-9.8c-3.3,0-6.3,2.3-7.3,6c-0.2,0.6-0.3,1.3-0.3,2V388.8z"/>
	<path id="XMLID_65_" d="M215.7,392.3c0,2.7,0.1,5.1,0.2,7.2h-4.3l-0.3-4.3h-0.1c-1.3,2.1-4,4.9-8.7,4.9c-4.2,0-9.1-2.3-9.1-11.6
		v-15.5h4.8v14.6c0,5,1.5,8.4,5.9,8.4c3.2,0,5.5-2.2,6.3-4.4c0.3-0.7,0.4-1.6,0.4-2.5v-16.2h4.8V392.3z"/>
	<path id="XMLID_67_" d="M229.4,365.5v7.6h6.9v3.7h-6.9V391c0,3.3,0.9,5.1,3.6,5.1c1.3,0,2.2-0.2,2.8-0.3l0.2,3.6
		c-0.9,0.4-2.4,0.7-4.3,0.7c-2.2,0-4-0.7-5.2-2c-1.4-1.4-1.9-3.8-1.9-6.9v-14.4h-4.1v-3.7h4.1v-6.3L229.4,365.5z"/>
</g>
<rect id="XMLID_3_" x="349.2" y="303.2" class="st0" width="258.2" height="147.7"/>
<g id="XMLID_4_">
	<path id="XMLID_46_" d="M435.8,377.4c-0.3-5.1-0.6-11.3-0.5-15.9h-0.2c-1.3,4.3-2.8,8.9-4.6,14l-6.5,17.9h-3.6l-6-17.5
		c-1.7-5.2-3.2-9.9-4.3-14.3H410c-0.1,4.6-0.4,10.8-0.7,16.3l-1,15.8h-4.5l2.6-36.8h6.1l6.3,17.8c1.5,4.5,2.8,8.6,3.7,12.4h0.2
		c0.9-3.7,2.2-7.8,3.9-12.4l6.6-17.8h6.1l2.3,36.8h-4.6L435.8,377.4z"/>
	<path id="XMLID_48_" d="M463.4,393.5l-0.4-3.3h-0.2c-1.5,2.1-4.3,3.9-8.1,3.9c-5.4,0-8.1-3.8-8.1-7.6c0-6.4,5.7-9.9,15.9-9.8v-0.5
		c0-2.2-0.6-6.1-6-6.1c-2.5,0-5,0.8-6.9,2l-1.1-3.2c2.2-1.4,5.4-2.3,8.7-2.3c8.1,0,10,5.5,10,10.8v9.9c0,2.3,0.1,4.5,0.4,6.3H463.4z
		 M462.7,380c-5.2-0.1-11.2,0.8-11.2,6c0,3.1,2.1,4.6,4.5,4.6c3.4,0,5.6-2.2,6.4-4.4c0.2-0.5,0.3-1,0.3-1.5V380z"/>
	<path id="XMLID_51_" d="M480.7,359.5v7.6h6.9v3.7h-6.9V385c0,3.3,0.9,5.1,3.6,5.1c1.3,0,2.2-0.2,2.8-0.3l0.2,3.6
		c-0.9,0.4-2.4,0.7-4.3,0.7c-2.2,0-4-0.7-5.2-2c-1.4-1.4-1.9-3.8-1.9-6.9v-14.4h-4.1v-3.7h4.1v-6.3L480.7,359.5z"/>
	<path id="XMLID_53_" d="M493,354.8h4.8v16.5h0.1c0.8-1.4,2-2.6,3.4-3.4c1.4-0.8,3.1-1.4,4.9-1.4c3.5,0,9.2,2.2,9.2,11.3v15.7h-4.8
		v-15.2c0-4.3-1.6-7.9-6.1-7.9c-3.1,0-5.6,2.2-6.4,4.8c-0.3,0.7-0.3,1.4-0.3,2.3v15.9H493V354.8z"/>
	<path id="XMLID_55_" d="M526,381.2c0.1,6.5,4.3,9.2,9.1,9.2c3.4,0,5.5-0.6,7.3-1.4l0.8,3.4c-1.7,0.8-4.6,1.6-8.8,1.6
		c-8.1,0-13-5.4-13-13.3c0-8,4.7-14.3,12.4-14.3c8.6,0,10.9,7.6,10.9,12.5c0,1-0.1,1.7-0.2,2.2H526z M540.1,377.7
		c0.1-3.1-1.3-7.8-6.7-7.8c-4.9,0-7,4.5-7.4,7.8H540.1z"/>
</g>
<rect id="XMLID_6_" x="647.8" y="303.2" class="st0" width="258.2" height="147.7"/>
<g id="XMLID_5_">
	<path id="XMLID_32_" d="M734.9,374.7c0,12.7-7.7,19.4-17.1,19.4c-9.7,0-16.5-7.5-16.5-18.7c0-11.7,7.3-19.3,17.1-19.3
		C728.4,356.1,734.9,363.8,734.9,374.7z M706.3,375.3c0,7.9,4.3,14.9,11.7,14.9c7.5,0,11.8-6.9,11.8-15.3c0-7.3-3.8-15-11.7-15
		C710.3,360,706.3,367.3,706.3,375.3z"/>
	<path id="XMLID_35_" d="M763.2,386.3c0,2.7,0.1,5.1,0.2,7.2h-4.3l-0.3-4.3h-0.1c-1.3,2.1-4,4.9-8.7,4.9c-4.2,0-9.1-2.3-9.1-11.6
		v-15.5h4.8v14.6c0,5,1.5,8.4,5.9,8.4c3.2,0,5.5-2.2,6.3-4.4c0.3-0.7,0.4-1.6,0.4-2.5v-16.2h4.8V386.3z"/>
	<path id="XMLID_37_" d="M776.9,359.5v7.6h6.9v3.7h-6.9V385c0,3.3,0.9,5.1,3.6,5.1c1.3,0,2.2-0.2,2.8-0.3l0.2,3.6
		c-0.9,0.4-2.4,0.7-4.3,0.7c-2.2,0-4-0.7-5.2-2c-1.4-1.4-1.9-3.8-1.9-6.9v-14.4h-4.1v-3.7h4.1v-6.3L776.9,359.5z"/>
	<path id="XMLID_39_" d="M789.2,375.7c0-3.4-0.1-6.1-0.2-8.6h4.3l0.2,4.5h0.1c2-3.2,5.1-5.1,9.4-5.1c6.4,0,11.2,5.4,11.2,13.4
		c0,9.5-5.8,14.2-12,14.2c-3.5,0-6.6-1.5-8.1-4.2H794v14.4h-4.8V375.7z M794,382.8c0,0.7,0.1,1.4,0.2,2c0.9,3.3,3.8,5.6,7.2,5.6
		c5.1,0,8-4.2,8-10.2c0-5.3-2.8-9.8-7.9-9.8c-3.3,0-6.3,2.3-7.3,6c-0.2,0.6-0.3,1.3-0.3,2V382.8z"/>
	<path id="XMLID_42_" d="M842.4,386.3c0,2.7,0.1,5.1,0.2,7.2h-4.3l-0.3-4.3H838c-1.3,2.1-4,4.9-8.7,4.9c-4.2,0-9.1-2.3-9.1-11.6
		v-15.5h4.8v14.6c0,5,1.5,8.4,5.9,8.4c3.2,0,5.5-2.2,6.3-4.4c0.3-0.7,0.4-1.6,0.4-2.5v-16.2h4.8V386.3z"/>
	<path id="XMLID_44_" d="M856.2,359.5v7.6h6.9v3.7h-6.9V385c0,3.3,0.9,5.1,3.6,5.1c1.3,0,2.2-0.2,2.8-0.3l0.2,3.6
		c-0.9,0.4-2.4,0.7-4.3,0.7c-2.2,0-4-0.7-5.2-2c-1.4-1.4-1.9-3.8-1.9-6.9v-14.4h-4.1v-3.7h4.1v-6.3L856.2,359.5z"/>
</g>
<rect id="XMLID_8_" x="494.9" y="85.8" class="st0" width="258.2" height="147.7"/>
<g id="XMLID_7_">
	<path id="XMLID_18_" d="M560.5,144.8h19.8v4h-15.1V161h13.9v3.9h-13.9v16.7h-4.8V144.8z"/>
	<path id="XMLID_20_" d="M587.9,169.3c0.1,6.5,4.3,9.2,9.1,9.2c3.4,0,5.5-0.6,7.3-1.4l0.8,3.4c-1.7,0.8-4.6,1.6-8.8,1.6
		c-8.1,0-13-5.4-13-13.3c0-8,4.7-14.3,12.4-14.3c8.6,0,10.9,7.6,10.9,12.5c0,1-0.1,1.7-0.2,2.2H587.9z M602,165.8
		c0.1-3.1-1.3-7.8-6.7-7.8c-4.9,0-7,4.5-7.4,7.8H602z"/>
	<path id="XMLID_23_" d="M612.6,142.8h4.8v16.5h0.1c0.8-1.4,2-2.6,3.4-3.4c1.4-0.8,3.1-1.4,4.9-1.4c3.5,0,9.2,2.2,9.2,11.3v15.7
		h-4.8v-15.2c0-4.3-1.6-7.9-6.1-7.9c-3.1,0-5.6,2.2-6.4,4.8c-0.3,0.7-0.3,1.4-0.3,2.3v15.9h-4.8V142.8z"/>
	<path id="XMLID_25_" d="M642.9,142.8h4.8v38.8h-4.8V142.8z"/>
	<path id="XMLID_27_" d="M658.5,169.3c0.1,6.5,4.3,9.2,9.1,9.2c3.4,0,5.5-0.6,7.3-1.4l0.8,3.4c-1.7,0.8-4.6,1.6-8.8,1.6
		c-8.1,0-13-5.4-13-13.3c0-8,4.7-14.3,12.4-14.3c8.6,0,10.9,7.6,10.9,12.5c0,1-0.1,1.7-0.2,2.2H658.5z M672.6,165.8
		c0.1-3.1-1.3-7.8-6.7-7.8c-4.9,0-7,4.5-7.4,7.8H672.6z"/>
	<path id="XMLID_30_" d="M683.1,163.4c0-3.1-0.1-5.8-0.2-8.2h4.2l0.2,5.2h0.2c1.2-3.5,4.1-5.8,7.3-5.8c0.5,0,0.9,0.1,1.4,0.2v4.5
		c-0.5-0.1-1-0.2-1.6-0.2c-3.4,0-5.8,2.6-6.4,6.2c-0.1,0.7-0.2,1.4-0.2,2.2v14.1h-4.8V163.4z"/>
</g>
<line id="XMLID_9_" class="st1" x1="311" y1="377.5" x2="349" y2="377.5"/>
<line id="XMLID_10_" class="st1" x1="607" y1="377.5" x2="648" y2="377.5"/>
<line id="XMLID_11_" class="st1" x1="815.9" y1="303.2" x2="753.1" y2="233.5"/>
<line id="XMLID_12_" class="st1" x1="494.9" y1="233.5" x2="470.2" y2="303.2"/>
<path id="XMLID_13_" class="st2" d="M330.2,373.7l7.6,4.4l-7.6,4.4l-7.6,4.4c0,0,0-8.4,0-8.8c0-0.4,0-8.8,0-8.8L330.2,373.7z"/>
<path id="XMLID_14_" class="st2" d="M631.2,372.7l7.6,4.4l-7.6,4.4l-7.6,4.4c0,0,0-8.4,0-8.8c0-0.4,0-8.8,0-8.8L631.2,372.7z"/>
<path id="XMLID_15_" class="st2" d="M789.3,266.2l8.2,3.3l-6.9,5.4l-6.9,5.4c0,0-1.2-8.3-1.3-8.7c-0.1-0.4-1.3-8.7-1.3-8.7
	L789.3,266.2z"/>
<path id="XMLID_16_" class="st2" d="M483.8,264.1l8.4,2.8l-6.6,5.8l-6.6,5.9c0,0-1.7-8.2-1.8-8.6c-0.1-0.4-1.8-8.6-1.8-8.6
	L483.8,264.1z"/>
<g id="XMLID_17_">
</g>
<g id="XMLID_69_">
</g>
<g id="XMLID_70_">
</g>
<g id="XMLID_71_">
</g>
<g id="XMLID_72_">
</g>
<g id="XMLID_73_">
</g>
<g id="XMLID_74_">
</g>
<g id="XMLID_75_">
</g>
<g id="XMLID_76_">
</g>
<g id="XMLID_77_">
</g>
<g id="XMLID_78_">
</g>
<g id="XMLID_79_">
</g>
<g id="XMLID_80_">
</g>
<g id="XMLID_81_">
</g>
<g id="XMLID_82_">
</g>
</svg>
